<?xml version="1.0" encoding="UTF-8"?>
<svg width="130px" height="130px" viewBox="0 0 130 130" version="1.1" xmlns="http://www.w3.org/2000/svg" xmlns:xlink="http://www.w3.org/1999/xlink">
    <title>wa+</title>
    <g id="LOGO" stroke="none" stroke-width="1" fill="none" fill-rule="evenodd">
        <g id="wa+" transform="translate(65.000000, 65.000000) rotate(-90.000000) translate(-65.000000, -65.000000) ">
            <rect id="Rectangle" fill-opacity="0.4" fill="#E8D388" x="40" y="0" width="90" height="90" rx="8"></rect>
            <rect id="Rectangle" fill-opacity="0.6" fill="#EF7A7A" x="20" y="20" width="90" height="90" rx="8"></rect>
            <rect id="Rectangle" fill-opacity="0.8" fill="#80C0E4" x="0" y="40" width="90" height="90" rx="8"></rect>
            <g id="+" transform="translate(19.500000, 62.000000)" fill="#FFFFFF">
                <rect id="Rectangle" x="16.5" y="0" width="17" height="50" rx="4"></rect>
                <path d="M20.5,0 L29.5,0 C31.709139,-4.05812251e-16 33.5,1.790861 33.5,4 L33.5,46 C33.5,48.209139 31.709139,50 29.5,50 L20.5,50 C18.290861,50 16.5,48.209139 16.5,46 L16.5,4 C16.5,1.790861 18.290861,1.29399067e-15 20.5,0 Z" id="Rectangle" transform="translate(25.000000, 25.000000) rotate(90.000000) translate(-25.000000, -25.000000) "></path>
            </g>
        </g>
    </g>
</svg>